<svg width="101" height="37" viewBox="0 0 101 37" fill="none" xmlns="http://www.w3.org/2000/svg">
<path d="M12.2786 6.56271H10.1395V7.6323H12.2786V6.56271Z" fill="black"/>
<path d="M12.2786 8.70187H10.1395V9.77146H12.2786V8.70187Z" fill="black"/>
<path d="M12.2786 10.841H10.1395V11.9106H12.2786V10.841Z" fill="black"/>
<path d="M19.7658 7.0975H18.6962C18.6958 7.38107 18.583 7.65293 18.3825 7.85344C18.182 8.05396 17.9102 8.16675 17.6266 8.16709V9.23667C18.1937 9.23603 18.7375 9.01045 19.1385 8.60942C19.5395 8.20839 19.7651 7.66465 19.7658 7.0975Z" fill="black"/>
<path d="M22.4398 9.77146V8.70188C22.1562 8.70154 21.8843 8.58875 21.6838 8.38823C21.4833 8.18772 21.3705 7.91586 21.3702 7.63229H20.3006C20.3012 8.19944 20.5268 8.74318 20.9279 9.14421C21.3289 9.54524 21.8726 9.77082 22.4398 9.77146Z" fill="black"/>
<path d="M28.0544 33.0505C27.1516 33.2146 26.2307 33.2557 25.3168 33.1728L16.0181 32.3274C15.8687 32.3138 15.7302 32.2431 15.6315 32.13C15.5329 32.0169 15.4816 31.8701 15.4883 31.7202C15.4951 31.5703 15.5594 31.4287 15.6679 31.325C15.7763 31.2212 15.9206 31.1633 16.0707 31.1632H23.2418C23.5965 31.1626 23.9364 31.0214 24.1871 30.7705C24.4377 30.5196 24.5786 30.1796 24.5788 29.8249V29.8124C24.5782 29.5314 24.4871 29.2581 24.3188 29.033L23.0944 27.401C23.0168 27.2972 22.9747 27.1711 22.9745 27.0415V26.9497C22.9744 26.8311 23.0096 26.7152 23.0755 26.6166C23.1414 26.518 23.235 26.4411 23.3446 26.3957C23.4542 26.3503 23.5748 26.3385 23.6911 26.3616C23.8074 26.3847 23.9142 26.4418 23.9981 26.5257L26.3398 28.8674C26.3895 28.917 26.4485 28.9564 26.5133 28.9833C26.5782 29.0102 26.6478 29.024 26.718 29.024H32.6007V27.9544H26.9395L24.7545 25.7693C24.6995 25.7145 24.6408 25.6634 24.5788 25.6166V13.515C24.5788 13.3732 24.5225 13.2372 24.4222 13.1369C24.3219 13.0366 24.1859 12.9802 24.044 12.9802H23.5092V11.3759H24.3114C24.8079 11.3759 25.2839 11.1787 25.635 10.8276C25.986 10.4766 26.1832 10.0005 26.1832 9.50409C26.1832 9.00766 25.986 8.53157 25.635 8.18054C25.2839 7.82952 24.8079 7.63231 24.3114 7.63231H24.2561C24.5239 7.31148 24.6616 6.90191 24.642 6.48449C24.6224 6.06708 24.447 5.67218 24.1504 5.37783C23.8538 5.08347 23.4576 4.91105 23.04 4.89464C22.6225 4.87823 22.214 5.01902 21.8952 5.28919C21.8446 4.75947 21.5984 4.26763 21.2046 3.9097C20.8109 3.55176 20.2978 3.35343 19.7657 3.35343C19.2336 3.35343 18.7205 3.55176 18.3268 3.9097C17.933 4.26763 17.6868 4.75947 17.6362 5.28919C17.3174 5.01902 16.9089 4.87823 16.4914 4.89464C16.0738 4.91105 15.6776 5.08347 15.381 5.37783C15.0844 5.67218 14.909 6.06708 14.8894 6.48449C14.8698 6.90191 15.0075 7.31148 15.2752 7.63231H15.22C14.9424 7.63206 14.6683 7.69389 14.4178 7.81327V5.49315C14.4178 4.64213 14.0797 3.82597 13.478 3.22422C12.8762 2.62246 12.06 2.28439 11.209 2.28439C10.358 2.28439 9.54185 2.62246 8.94009 3.22422C8.33834 3.82597 8.00027 4.64213 8.00027 5.49315V12.9802H7.46548C7.32364 12.9802 7.18762 13.0366 7.08733 13.1369C6.98703 13.2372 6.93069 13.3732 6.93069 13.515V15.8666L4.05892 18.3282H0.513184V19.3977H4.25673C4.38438 19.3977 4.50782 19.3521 4.60474 19.269L7.7044 16.6121C8.02306 16.3392 8.42879 16.1891 8.84839 16.189C8.89219 16.189 8.93501 16.202 8.97143 16.2263C9.00785 16.2507 9.03623 16.2853 9.05299 16.3257C9.06975 16.3662 9.07413 16.4107 9.06558 16.4537C9.05702 16.4967 9.03593 16.5361 9.00495 16.5671L7.08732 18.4848C7.01252 18.5596 6.96158 18.6549 6.94095 18.7586C6.92031 18.8624 6.9309 18.9699 6.97138 19.0676C7.01186 19.1653 7.08041 19.2489 7.16836 19.3076C7.25631 19.3664 7.35971 19.3977 7.46548 19.3977H13.0808C13.1517 19.3977 13.2197 19.4259 13.2699 19.4761C13.32 19.5262 13.3482 19.5942 13.3482 19.6651C13.3482 19.7361 13.32 19.8041 13.2699 19.8542C13.2197 19.9044 13.1517 19.9325 13.0808 19.9325H9.06986C8.92802 19.9325 8.79199 19.9889 8.6917 20.0892C8.59141 20.1895 8.53506 20.3255 8.53506 20.4673C8.53506 20.6092 8.59141 20.7452 8.6917 20.8455C8.79199 20.9458 8.92802 21.0021 9.06986 21.0021H14.6852C14.7561 21.0021 14.8241 21.0303 14.8743 21.0804C14.9244 21.1306 14.9526 21.1986 14.9526 21.2695C14.9526 21.3404 14.9244 21.4084 14.8743 21.4586C14.8241 21.5087 14.7561 21.5369 14.6852 21.5369H9.06986C8.92802 21.5369 8.79199 21.5933 8.6917 21.6935C8.59141 21.7938 8.53506 21.9299 8.53506 22.0717C8.53506 22.2135 8.59141 22.3496 8.6917 22.4499C8.79199 22.5501 8.92802 22.6065 9.06986 22.6065H13.6156C13.6865 22.6065 13.7545 22.6347 13.8047 22.6848C13.8548 22.735 13.883 22.803 13.883 22.8739C13.883 22.9448 13.8548 23.0128 13.8047 23.063C13.7545 23.1131 13.6865 23.1413 13.6156 23.1413H9.06986C8.92802 23.1413 8.79199 23.1976 8.6917 23.2979C8.59141 23.3982 8.53506 23.5342 8.53506 23.6761C8.53506 23.8179 8.59141 23.9539 8.6917 24.0542C8.79199 24.1545 8.92802 24.2109 9.06986 24.2109H11.7104C11.7186 24.2113 11.7264 24.2147 11.7322 24.2205C11.7381 24.2263 11.7416 24.234 11.7421 24.2422C11.7426 24.2504 11.7401 24.2585 11.735 24.265C11.7299 24.2714 11.7226 24.2758 11.7145 24.2772L8.04212 24.7362L4.4038 23.6967C4.35597 23.683 4.30647 23.6761 4.25673 23.6761H0.513184V24.7457H4.18186L6.93069 25.5311V30.6284H6.93196C6.93145 30.6986 6.9449 30.7683 6.97152 30.8333C6.99813 30.8984 7.03739 30.9575 7.08702 31.0072C7.13665 31.0569 7.19565 31.0963 7.26062 31.1231C7.32558 31.1499 7.39522 31.1635 7.46548 31.1632H14.5247C14.4347 31.4014 14.401 31.6573 14.4262 31.9107C14.4515 32.1642 14.535 32.4084 14.6702 32.6242C14.8054 32.8401 14.9887 33.0217 15.2057 33.155C15.4228 33.2883 15.6677 33.3696 15.9213 33.3926L25.22 34.2382C25.5584 34.2691 25.8973 34.2845 26.2367 34.2844C26.9105 34.2844 27.5829 34.2238 28.2458 34.1033L32.6964 33.294L32.505 32.2417L28.0544 33.0505ZM13.3482 10.8411C13.3484 10.6993 13.4047 10.5633 13.505 10.4631C13.6053 10.3628 13.7412 10.3064 13.883 10.3063H14.9526C15.5197 10.3069 16.0635 10.5325 16.4645 10.9335C16.8655 11.3346 17.0911 11.8783 17.0917 12.4454C17.0916 12.5872 17.0352 12.7232 16.9349 12.8234C16.8347 12.9237 16.6987 12.9801 16.5569 12.9802H15.4874C14.9202 12.9796 14.3765 12.754 13.9754 12.353C13.5744 11.952 13.3488 11.4082 13.3482 10.8411ZM15.22 8.7019H16.5569C16.6627 8.7019 16.7661 8.67054 16.8541 8.61178C16.942 8.55301 17.0106 8.46949 17.051 8.37176C17.0915 8.27404 17.1021 8.16651 17.0815 8.06277C17.0608 7.95903 17.0099 7.86373 16.9351 7.78894L16.1329 6.98675C16.0772 6.93107 16.0331 6.86496 16.0029 6.79221C15.9728 6.71946 15.9573 6.64148 15.9573 6.56273C15.9573 6.48398 15.9728 6.406 16.0029 6.33325C16.0331 6.2605 16.0772 6.19439 16.1329 6.13871C16.1886 6.08302 16.2547 6.03885 16.3275 6.00872C16.4002 5.97858 16.4782 5.96307 16.5569 5.96307C16.6357 5.96307 16.7137 5.97858 16.7864 6.00872C16.8592 6.03885 16.9253 6.08302 16.981 6.13871L17.7832 6.94089C17.8579 7.01569 17.9532 7.06663 18.057 7.08726C18.1607 7.1079 18.2683 7.09731 18.366 7.05683C18.4637 7.01635 18.5472 6.9478 18.606 6.85985C18.6648 6.7719 18.6961 6.6685 18.6961 6.56273V5.49315C18.6961 5.20947 18.8088 4.93742 19.0094 4.73684C19.21 4.53625 19.482 4.42356 19.7657 4.42356C20.0494 4.42356 20.3214 4.53625 20.522 4.73684C20.7226 4.93742 20.8353 5.20947 20.8353 5.49315V6.56273C20.8353 6.6685 20.8666 6.7719 20.9254 6.85985C20.9842 6.9478 21.0677 7.01635 21.1654 7.05683C21.2631 7.09731 21.3707 7.1079 21.4744 7.08726C21.5782 7.06663 21.6734 7.01569 21.7482 6.94089L22.5504 6.13871C22.6061 6.08302 22.6722 6.03885 22.745 6.00872C22.8177 5.97858 22.8957 5.96307 22.9745 5.96307C23.0532 5.96307 23.1312 5.97858 23.2039 6.00872C23.2767 6.03885 23.3428 6.08302 23.3985 6.13871C23.4542 6.19439 23.4983 6.2605 23.5285 6.33325C23.5586 6.406 23.5741 6.48398 23.5741 6.56273C23.5741 6.64148 23.5586 6.71946 23.5285 6.79221C23.4983 6.86496 23.4542 6.93107 23.3985 6.98675L22.5963 7.78894C22.5215 7.86373 22.4706 7.95903 22.4499 8.06277C22.4293 8.16651 22.4399 8.27404 22.4803 8.37176C22.5208 8.46949 22.5894 8.55301 22.6773 8.61178C22.7653 8.67054 22.8687 8.7019 22.9745 8.7019H24.3114C24.5242 8.7019 24.7282 8.78641 24.8787 8.93685C25.0291 9.08729 25.1136 9.29133 25.1136 9.50409C25.1136 9.71684 25.0291 9.92088 24.8787 10.0713C24.7282 10.2218 24.5242 10.3063 24.3114 10.3063H22.9745C22.8326 10.3063 22.6966 10.3626 22.5963 10.4629C22.496 10.5632 22.4397 10.6992 22.4397 10.8411V11.1259C21.8156 10.5655 20.9966 10.2723 20.1587 10.3094C19.3208 10.3466 18.5309 10.711 17.9589 11.3245C17.7297 10.7119 17.3191 10.1839 16.782 9.81081C16.2448 9.43776 15.6066 9.23747 14.9526 9.23669H14.4646C14.5199 9.08049 14.6222 8.94524 14.7575 8.84949C14.8927 8.75374 15.0543 8.70218 15.22 8.7019ZM22.3719 12.9802H18.229C18.3475 12.5209 18.6152 12.1139 18.9902 11.8233C19.3652 11.5327 19.8261 11.375 20.3005 11.375C20.7749 11.375 21.2358 11.5327 21.6108 11.8233C21.9858 12.1139 22.2535 12.5209 22.3719 12.9802ZM9.06986 5.49315C9.06986 4.9258 9.29523 4.3817 9.6964 3.98053C10.0976 3.57935 10.6417 3.35398 11.209 3.35398C11.7764 3.35398 12.3205 3.57935 12.7216 3.98053C13.1228 4.3817 13.3482 4.9258 13.3482 5.49315V9.32867C13.0356 9.43958 12.7651 9.64448 12.5736 9.91525C12.3821 10.186 12.279 10.5094 12.2786 10.8411C12.278 11.6309 12.57 12.393 13.0982 12.9802H9.06986V5.49315ZM10.1394 14.0498H11.209V18.3282H10.1394V14.0498ZM8.84839 15.1194C8.56068 15.1195 8.27468 15.1636 8.00027 15.25V14.0498H9.06986V15.1398C8.99676 15.1267 8.92266 15.1198 8.84839 15.1194ZM9.06986 18.0149V18.3282H8.75654L9.06986 18.0149ZM10.1394 25.552L11.209 25.4183V29.3372L10.1394 28.2676V25.552ZM8.06659 25.8111L9.06986 25.6857V28.2677L8.00027 29.3373V25.8152C8.02244 25.8152 8.04459 25.8138 8.06659 25.8111ZM8.75654 30.0936L9.60465 29.2455L10.4528 30.0936H8.75654ZM12.2786 25.1879C12.4415 25.09 12.5762 24.9516 12.6699 24.7863C12.7636 24.6209 12.813 24.4342 12.8134 24.2442C12.8134 24.233 12.8134 24.2219 12.8129 24.2107H13.6156C13.8156 24.2106 14.0131 24.1657 14.1934 24.0792C14.3738 23.9927 14.5324 23.8668 14.6577 23.7109C14.783 23.5549 14.8717 23.3729 14.9173 23.1781C14.9629 22.9834 14.9643 22.7809 14.9213 22.5855C15.2501 22.5265 15.545 22.3466 15.7478 22.0811C15.9506 21.8156 16.0466 21.4838 16.017 21.151C15.9874 20.8182 15.8343 20.5086 15.5878 20.2831C15.3413 20.0576 15.0193 19.9325 14.6852 19.9325H14.391C14.4305 19.7383 14.4263 19.5377 14.3788 19.3452C14.3313 19.1528 14.2416 18.9733 14.1162 18.8198C13.9908 18.6663 13.8329 18.5425 13.6538 18.4575C13.4747 18.3725 13.279 18.3283 13.0808 18.3282H12.2786V14.0498H23.5092V25.2821C23.0783 25.2994 22.6707 25.4825 22.3717 25.7933C22.0727 26.1041 21.9055 26.5185 21.9049 26.9497V27.0415C21.9056 27.4026 22.0229 27.7538 22.2391 28.0431L23.4635 29.6748C23.4932 29.7146 23.5093 29.7628 23.5094 29.8124V29.8249C23.5095 29.896 23.4814 29.9642 23.4312 30.0146C23.3811 30.065 23.3129 30.0934 23.2418 30.0936H12.2786V25.1879Z" fill="black"/>
<path d="M44.9342 14.2844V3.62033H47.9445C48.8722 3.62033 49.6925 3.82541 50.4054 4.23557C51.1183 4.64572 51.6676 5.22922 52.0533 5.98605C52.444 6.74289 52.6417 7.61203 52.6466 8.59348V9.27463C52.6466 10.2805 52.4513 11.1618 52.0607 11.9187C51.6749 12.6755 51.1207 13.2566 50.3981 13.6618C49.6803 14.0671 48.8429 14.2746 47.8859 14.2844H44.9342ZM46.3405 4.77756V13.1345H47.8199C48.9039 13.1345 49.7462 12.7976 50.3468 12.1237C50.9523 11.4499 51.255 10.4904 51.255 9.24533V8.62277C51.255 7.41183 50.9694 6.47189 50.3981 5.80295C49.8317 5.12912 49.026 4.78732 47.9811 4.77756H46.3405ZM57.8541 14.4309C56.7799 14.4309 55.9059 14.0793 55.2321 13.3762C54.5582 12.6682 54.2213 11.7234 54.2213 10.5417V10.2927C54.2213 9.50656 54.3702 8.80588 54.6681 8.19064C54.9708 7.57053 55.3907 7.08713 55.9279 6.74045C56.4698 6.38889 57.0558 6.2131 57.6857 6.2131C58.7159 6.2131 59.5167 6.55246 60.088 7.23117C60.6593 7.90988 60.9449 8.88156 60.9449 10.1462V10.7102H55.5763C55.5958 11.4914 55.8229 12.1237 56.2574 12.6071C56.6969 13.0857 57.2535 13.3249 57.9274 13.3249C58.4059 13.3249 58.8112 13.2273 59.1432 13.032C59.4752 12.8366 59.7657 12.5779 60.0148 12.2556L60.8424 12.9001C60.1783 13.9206 59.1823 14.4309 57.8541 14.4309ZM57.6857 7.32639C57.1388 7.32639 56.6798 7.52658 56.3087 7.92697C55.9376 8.32248 55.7081 8.87912 55.6202 9.59689H59.59V9.49435C59.5509 8.80588 59.3654 8.27365 59.0333 7.89767C58.7013 7.51682 58.2521 7.32639 57.6857 7.32639ZM63.9918 14.2844H62.6368V3.03439H63.9918V14.2844ZM67.6393 14.2844H66.2843V6.35959H67.6393V14.2844ZM66.1744 4.25754C66.1744 4.03781 66.2404 3.85226 66.3722 3.7009C66.5089 3.54953 66.7091 3.47385 66.9728 3.47385C67.2365 3.47385 67.4366 3.54953 67.5734 3.7009C67.7101 3.85226 67.7784 4.03781 67.7784 4.25754C67.7784 4.47726 67.7101 4.66037 67.5734 4.80685C67.4366 4.95334 67.2365 5.02658 66.9728 5.02658C66.7091 5.02658 66.5089 4.95334 66.3722 4.80685C66.2404 4.66037 66.1744 4.47726 66.1744 4.25754ZM72.4293 12.446L74.3922 6.35959H75.7765L72.9347 14.2844H71.902L69.0309 6.35959H70.4152L72.4293 12.446ZM80.2662 14.4309C79.192 14.4309 78.318 14.0793 77.6442 13.3762C76.9703 12.6682 76.6334 11.7234 76.6334 10.5417V10.2927C76.6334 9.50656 76.7823 8.80588 77.0802 8.19064C77.3829 7.57053 77.8029 7.08713 78.34 6.74045C78.882 6.38889 79.4679 6.2131 80.0978 6.2131C81.1281 6.2131 81.9288 6.55246 82.5001 7.23117C83.0714 7.90988 83.3571 8.88156 83.3571 10.1462V10.7102H77.9884C78.0079 11.4914 78.235 12.1237 78.6696 12.6071C79.109 13.0857 79.6656 13.3249 80.3395 13.3249C80.818 13.3249 81.2233 13.2273 81.5553 13.032C81.8873 12.8366 82.1779 12.5779 82.4269 12.2556L83.2545 12.9001C82.5905 13.9206 81.5944 14.4309 80.2662 14.4309ZM80.0978 7.32639C79.5509 7.32639 79.0919 7.52658 78.7208 7.92697C78.3497 8.32248 78.1202 8.87912 78.0323 9.59689H82.0021V9.49435C81.963 8.80588 81.7775 8.27365 81.4454 7.89767C81.1134 7.51682 80.6642 7.32639 80.0978 7.32639ZM88.7623 7.57541C88.5573 7.54123 88.3351 7.52414 88.0958 7.52414C87.2072 7.52414 86.6041 7.90256 86.2867 8.65939V14.2844H84.9318V6.35959H86.2501L86.2721 7.27512C86.7164 6.56711 87.3463 6.2131 88.1617 6.2131C88.4254 6.2131 88.6256 6.24728 88.7623 6.31564V7.57541ZM92.7394 12.2995L94.5851 6.35959H96.0353L92.8492 15.5075C92.3561 16.8259 91.5724 17.4851 90.4982 17.4851L90.2418 17.4631L89.7365 17.3679V16.2693L90.1027 16.2986C90.5616 16.2986 90.9181 16.2058 91.172 16.0202C91.4308 15.8347 91.6432 15.4953 91.8092 15.0022L92.1095 14.1965L89.2823 6.35959H90.7618L92.7394 12.2995ZM50.8156 27.5749H46.3405V32.2844H44.9342V21.6203H51.5406V22.7776H46.3405V26.425H50.8156V27.5749ZM52.4928 28.2487C52.4928 27.4724 52.6442 26.7741 52.9469 26.154C53.2545 25.5339 53.6793 25.0554 54.2213 24.7185C54.7682 24.3816 55.3907 24.2131 56.089 24.2131C57.1681 24.2131 58.0397 24.5866 58.7037 25.3337C59.3727 26.0808 59.7072 27.0744 59.7072 28.3147V28.4099C59.7072 29.1814 59.5582 29.8747 59.2604 30.49C58.9674 31.1003 58.545 31.5764 57.9933 31.9182C57.4464 32.26 56.8165 32.4309 56.1036 32.4309C55.0294 32.4309 54.1578 32.0573 53.4889 31.3103C52.8248 30.5632 52.4928 29.5744 52.4928 28.344V28.2487ZM53.8551 28.4099C53.8551 29.2888 54.0577 29.9944 54.463 30.5266C54.8732 31.0588 55.42 31.3249 56.1036 31.3249C56.7921 31.3249 57.339 31.0564 57.7443 30.5193C58.1495 29.9773 58.3522 29.2204 58.3522 28.2487C58.3522 27.3796 58.1447 26.6765 57.7296 26.1394C57.3195 25.5974 56.7726 25.3264 56.089 25.3264C55.42 25.3264 54.8805 25.5925 54.4703 26.1247C54.0602 26.657 53.8551 27.4187 53.8551 28.4099ZM61.0475 28.2487C61.0475 27.4724 61.1989 26.7741 61.5016 26.154C61.8092 25.5339 62.234 25.0554 62.776 24.7185C63.3229 24.3816 63.9454 24.2131 64.6437 24.2131C65.7228 24.2131 66.5944 24.5866 67.2584 25.3337C67.9274 26.0808 68.2618 27.0744 68.2618 28.3147V28.4099C68.2618 29.1814 68.1129 29.8747 67.8151 30.49C67.5221 31.1003 67.0997 31.5764 66.548 31.9182C66.0011 32.26 65.3712 32.4309 64.6583 32.4309C63.5841 32.4309 62.7125 32.0573 62.0436 31.3103C61.3795 30.5632 61.0475 29.5744 61.0475 28.344V28.2487ZM62.4098 28.4099C62.4098 29.2888 62.6124 29.9944 63.0177 30.5266C63.4279 31.0588 63.9747 31.3249 64.6583 31.3249C65.3468 31.3249 65.8937 31.0564 66.299 30.5193C66.7042 29.9773 66.9069 29.2204 66.9069 28.2487C66.9069 27.3796 66.6993 26.6765 66.2843 26.1394C65.8741 25.5974 65.3273 25.3264 64.6437 25.3264C63.9747 25.3264 63.4352 25.5925 63.025 26.1247C62.6149 26.657 62.4098 27.4187 62.4098 28.4099ZM69.6315 28.2561C69.6315 27.0403 69.9196 26.0637 70.4957 25.3264C71.0719 24.5842 71.8263 24.2131 72.7589 24.2131C73.6866 24.2131 74.4215 24.5305 74.9635 25.1653V21.0344H76.3185V32.2844H75.0734L75.0074 31.4348C74.4655 32.0988 73.7111 32.4309 72.7443 32.4309C71.8263 32.4309 71.0768 32.0549 70.4957 31.3029C69.9196 30.551 69.6315 29.5695 69.6315 28.3586V28.2561ZM70.9865 28.4099C70.9865 29.3083 71.172 30.0114 71.5431 30.5193C71.9142 31.0271 72.4269 31.281 73.0812 31.281C73.9406 31.281 74.568 30.8952 74.9635 30.1237V26.4836C74.5582 25.7365 73.9357 25.363 73.0958 25.363C72.4318 25.363 71.9142 25.6194 71.5431 26.132C71.172 26.6447 70.9865 27.404 70.9865 28.4099Z" fill="black"/>
</svg>
